<svg width="26" height="26" viewBox="0 0 26 26" fill="none" xmlns="http://www.w3.org/2000/svg">
<path d="M2.54974 7.22789H22.8622C23.2937 7.22789 23.6435 6.87813 23.6435 6.44664V4.49352C23.6435 4.06202 23.2937 3.71227 22.8622 3.71227H2.54974C2.11825 3.71227 1.76849 4.06202 1.76849 4.49352V6.44664C1.76849 6.87813 2.11825 7.22789 2.54974 7.22789ZM2.54974 15.0404H22.8622C23.2937 15.0404 23.6435 14.6906 23.6435 14.2591V12.306C23.6435 11.8745 23.2937 11.5248 22.8622 11.5248H2.54974C2.11825 11.5248 1.76849 11.8745 1.76849 12.306V14.2591C1.76849 14.6906 2.11825 15.0404 2.54974 15.0404ZM2.54974 22.8529H22.8622C23.2937 22.8529 23.6435 22.5031 23.6435 22.0716V20.1185C23.6435 19.687 23.2937 19.3373 22.8622 19.3373H2.54974C2.11825 19.3373 1.76849 19.687 1.76849 20.1185V22.0716C1.76849 22.5031 2.11825 22.8529 2.54974 22.8529Z" fill="black"/>
</svg>
